<mxfile host="app.diagrams.net" agent="Mozilla/5.0 (Windows NT 10.0; Win64; x64) AppleWebKit/537.36 (KHTML, like Gecko) Chrome/133.0.0.0 Safari/537.36" version="26.0.16">
  <diagram name="Page-1" id="a45ER9YDYO6koR2DzhLI">
    <mxGraphModel dx="2857" dy="2308" grid="1" gridSize="10" guides="1" tooltips="1" connect="1" arrows="1" fold="1" page="1" pageScale="1" pageWidth="1169" pageHeight="1654" math="0" shadow="0">
      <root>
        <mxCell id="0" />
        <mxCell id="1" parent="0" />
        <mxCell id="CD5Oa2_5sNhieO9UJfDK-38" value="" style="rounded=0;whiteSpace=wrap;html=1;fillColor=#CCCCCC;strokeColor=#555555;" vertex="1" parent="1">
          <mxGeometry x="140" y="540" width="220" height="180" as="geometry" />
        </mxCell>
        <mxCell id="CD5Oa2_5sNhieO9UJfDK-37" value="" style="rounded=0;whiteSpace=wrap;html=1;fillColor=#CCCCCC;strokeColor=#555555;" vertex="1" parent="1">
          <mxGeometry x="140" y="300" width="220" height="180" as="geometry" />
        </mxCell>
        <mxCell id="CD5Oa2_5sNhieO9UJfDK-36" value="" style="rounded=0;whiteSpace=wrap;html=1;fillColor=#CCCCCC;strokeColor=#555555;" vertex="1" parent="1">
          <mxGeometry x="140" width="220" height="240" as="geometry" />
        </mxCell>
        <mxCell id="CD5Oa2_5sNhieO9UJfDK-27" value="" style="rounded=0;whiteSpace=wrap;html=1;" vertex="1" parent="1">
          <mxGeometry x="130" y="-50" width="280" height="30" as="geometry" />
        </mxCell>
        <mxCell id="CD5Oa2_5sNhieO9UJfDK-1" value="Customer" style="shape=umlActor;verticalLabelPosition=bottom;verticalAlign=top;html=1;outlineConnect=0;" vertex="1" parent="1">
          <mxGeometry x="-80" y="40" width="30" height="60" as="geometry" />
        </mxCell>
        <mxCell id="CD5Oa2_5sNhieO9UJfDK-2" value="Administrator" style="shape=umlActor;verticalLabelPosition=bottom;verticalAlign=top;html=1;outlineConnect=0;" vertex="1" parent="1">
          <mxGeometry x="-80" y="130" width="30" height="60" as="geometry" />
        </mxCell>
        <mxCell id="CD5Oa2_5sNhieO9UJfDK-3" value="" style="rounded=0;whiteSpace=wrap;html=1;fillColor=#EEEEEE;" vertex="1" parent="1">
          <mxGeometry x="170" y="20" width="160" height="190" as="geometry" />
        </mxCell>
        <mxCell id="CD5Oa2_5sNhieO9UJfDK-4" value="" style="rounded=0;whiteSpace=wrap;html=1;" vertex="1" parent="1">
          <mxGeometry x="190" y="40" width="120" height="60" as="geometry" />
        </mxCell>
        <mxCell id="CD5Oa2_5sNhieO9UJfDK-5" value="Webshop" style="text;html=1;align=center;verticalAlign=middle;whiteSpace=wrap;rounded=0;" vertex="1" parent="1">
          <mxGeometry x="190" y="40" width="120" height="60" as="geometry" />
        </mxCell>
        <mxCell id="CD5Oa2_5sNhieO9UJfDK-6" value="" style="rounded=0;whiteSpace=wrap;html=1;" vertex="1" parent="1">
          <mxGeometry x="190" y="130" width="120" height="60" as="geometry" />
        </mxCell>
        <mxCell id="CD5Oa2_5sNhieO9UJfDK-7" value="Administrator Panel" style="text;html=1;align=center;verticalAlign=middle;whiteSpace=wrap;rounded=0;" vertex="1" parent="1">
          <mxGeometry x="190" y="130" width="120" height="60" as="geometry" />
        </mxCell>
        <mxCell id="CD5Oa2_5sNhieO9UJfDK-41" style="rounded=0;orthogonalLoop=1;jettySize=auto;html=1;entryX=0.5;entryY=0;entryDx=0;entryDy=0;endArrow=classic;endFill=1;strokeColor=default;startArrow=classic;startFill=1;" edge="1" parent="1" source="CD5Oa2_5sNhieO9UJfDK-8" target="CD5Oa2_5sNhieO9UJfDK-37">
          <mxGeometry relative="1" as="geometry" />
        </mxCell>
        <mxCell id="CD5Oa2_5sNhieO9UJfDK-8" value="Frontend" style="text;html=1;align=center;verticalAlign=middle;whiteSpace=wrap;rounded=0;" vertex="1" parent="1">
          <mxGeometry x="220" y="210" width="60" height="30" as="geometry" />
        </mxCell>
        <mxCell id="CD5Oa2_5sNhieO9UJfDK-9" value="" style="rounded=0;whiteSpace=wrap;html=1;fillColor=#EEEEEE;" vertex="1" parent="1">
          <mxGeometry x="170" y="320" width="160" height="40" as="geometry" />
        </mxCell>
        <mxCell id="CD5Oa2_5sNhieO9UJfDK-10" value="Backend" style="text;html=1;align=center;verticalAlign=middle;whiteSpace=wrap;rounded=0;" vertex="1" parent="1">
          <mxGeometry x="220" y="360" width="60" height="30" as="geometry" />
        </mxCell>
        <mxCell id="CD5Oa2_5sNhieO9UJfDK-11" value="" style="rounded=0;whiteSpace=wrap;html=1;fillColor=#EEEEEE;" vertex="1" parent="1">
          <mxGeometry x="165" y="560" width="160" height="40" as="geometry" />
        </mxCell>
        <mxCell id="CD5Oa2_5sNhieO9UJfDK-12" value="Database" style="text;html=1;align=center;verticalAlign=middle;whiteSpace=wrap;rounded=0;" vertex="1" parent="1">
          <mxGeometry x="220" y="600" width="60" height="30" as="geometry" />
        </mxCell>
        <mxCell id="CD5Oa2_5sNhieO9UJfDK-13" value="" style="endArrow=none;dashed=1;html=1;dashPattern=1 3;strokeWidth=2;rounded=0;" edge="1" parent="1">
          <mxGeometry width="50" height="50" relative="1" as="geometry">
            <mxPoint y="270" as="sourcePoint" />
            <mxPoint x="480" y="270" as="targetPoint" />
          </mxGeometry>
        </mxCell>
        <mxCell id="CD5Oa2_5sNhieO9UJfDK-14" value="" style="endArrow=none;dashed=1;html=1;dashPattern=1 3;strokeWidth=2;rounded=0;" edge="1" parent="1">
          <mxGeometry width="50" height="50" relative="1" as="geometry">
            <mxPoint y="510" as="sourcePoint" />
            <mxPoint x="480" y="510" as="targetPoint" />
          </mxGeometry>
        </mxCell>
        <mxCell id="CD5Oa2_5sNhieO9UJfDK-23" value="Presentation tier" style="text;html=1;align=center;verticalAlign=middle;whiteSpace=wrap;rounded=0;rotation=-90;" vertex="1" parent="1">
          <mxGeometry x="300" y="110" width="150" height="30" as="geometry" />
        </mxCell>
        <mxCell id="CD5Oa2_5sNhieO9UJfDK-24" value="Application tier" style="text;html=1;align=center;verticalAlign=middle;whiteSpace=wrap;rounded=0;rotation=-90;" vertex="1" parent="1">
          <mxGeometry x="300" y="370" width="150" height="30" as="geometry" />
        </mxCell>
        <mxCell id="CD5Oa2_5sNhieO9UJfDK-25" value="Data tier" style="text;html=1;align=center;verticalAlign=middle;whiteSpace=wrap;rounded=0;rotation=-90;" vertex="1" parent="1">
          <mxGeometry x="300" y="615" width="150" height="30" as="geometry" />
        </mxCell>
        <mxCell id="CD5Oa2_5sNhieO9UJfDK-26" value="&lt;font style=&quot;font-size: 24px;&quot;&gt;&lt;b&gt;Three-Tier Architecture&lt;/b&gt;&lt;/font&gt;" style="text;html=1;align=center;verticalAlign=middle;whiteSpace=wrap;rounded=0;" vertex="1" parent="1">
          <mxGeometry x="130" y="-50" width="280" height="30" as="geometry" />
        </mxCell>
        <mxCell id="CD5Oa2_5sNhieO9UJfDK-31" value="" style="rounded=0;whiteSpace=wrap;html=1;fillColor=#EEEEEE;" vertex="1" parent="1">
          <mxGeometry x="170" y="400" width="160" height="40" as="geometry" />
        </mxCell>
        <mxCell id="CD5Oa2_5sNhieO9UJfDK-33" value="" style="rounded=0;whiteSpace=wrap;html=1;fillColor=#EEEEEE;" vertex="1" parent="1">
          <mxGeometry x="170" y="640" width="160" height="40" as="geometry" />
        </mxCell>
        <mxCell id="CD5Oa2_5sNhieO9UJfDK-42" style="edgeStyle=orthogonalEdgeStyle;rounded=0;orthogonalLoop=1;jettySize=auto;html=1;entryX=0.5;entryY=0;entryDx=0;entryDy=0;startArrow=classic;startFill=1;" edge="1" parent="1" target="CD5Oa2_5sNhieO9UJfDK-38">
          <mxGeometry relative="1" as="geometry">
            <mxPoint x="250" y="480" as="sourcePoint" />
          </mxGeometry>
        </mxCell>
        <mxCell id="CD5Oa2_5sNhieO9UJfDK-34" value="E-Mail Service" style="text;html=1;align=center;verticalAlign=middle;whiteSpace=wrap;rounded=0;" vertex="1" parent="1">
          <mxGeometry x="220" y="440" width="60" height="30" as="geometry" />
        </mxCell>
        <mxCell id="CD5Oa2_5sNhieO9UJfDK-35" value="Image Storage" style="text;html=1;align=center;verticalAlign=middle;whiteSpace=wrap;rounded=0;" vertex="1" parent="1">
          <mxGeometry x="220" y="680" width="60" height="30" as="geometry" />
        </mxCell>
        <mxCell id="CD5Oa2_5sNhieO9UJfDK-39" style="edgeStyle=orthogonalEdgeStyle;rounded=0;orthogonalLoop=1;jettySize=auto;html=1;entryX=0;entryY=0.5;entryDx=0;entryDy=0;endArrow=none;startFill=0;" edge="1" parent="1" source="CD5Oa2_5sNhieO9UJfDK-1" target="CD5Oa2_5sNhieO9UJfDK-5">
          <mxGeometry relative="1" as="geometry" />
        </mxCell>
        <mxCell id="CD5Oa2_5sNhieO9UJfDK-40" style="edgeStyle=orthogonalEdgeStyle;rounded=0;orthogonalLoop=1;jettySize=auto;html=1;entryX=0;entryY=0.5;entryDx=0;entryDy=0;endArrow=none;startFill=0;" edge="1" parent="1" source="CD5Oa2_5sNhieO9UJfDK-2" target="CD5Oa2_5sNhieO9UJfDK-7">
          <mxGeometry relative="1" as="geometry" />
        </mxCell>
      </root>
    </mxGraphModel>
  </diagram>
</mxfile>
